<svg width="124" height="208" viewBox="0 0 124 208" fill="none" xmlns="http://www.w3.org/2000/svg">
<path d="M1.14314 57.2626V58.1195H2H34.3488H35.2057V57.2626C35.2057 48.3547 37.333 41.5459 42.0563 36.9511C46.7851 32.351 54.2753 29.8142 65.3498 29.8142C72.2767 29.8142 78.1509 31.0834 82.2672 33.7847C86.331 36.4516 88.7546 40.5584 88.7546 46.4797C88.7546 57.8055 80.4885 65.6755 67.1294 70.8521C53.7877 76.022 35.6404 78.377 16.5389 78.7805L15.7001 78.7983V79.6372V133.013V133.87H16.557H109.29H110.147V133.013V106.055V105.199H109.29H47.8275H47.6798L47.5407 105.248L28.1968 112.12V104.938C49.4378 102.634 72.8732 98.7043 91.0923 90.0142C109.566 81.2026 122.817 67.414 122.817 45.4014C122.817 35.0975 119.243 24.0082 110.285 15.4977C101.324 6.98497 87.0725 1.14314 65.8889 1.14314C42.9552 1.14314 26.7424 7.4559 16.2614 17.6963C5.78078 27.9364 1.14314 41.9952 1.14314 57.2626ZM62.6541 206.385C80.9345 206.385 93.4336 193.046 93.4336 175.605C93.4336 158.693 80.9243 145.365 62.6541 145.365C53.2771 145.365 45.6997 148.68 40.4686 154.155C35.2433 159.624 32.4137 167.191 32.4137 175.605C32.4137 184.282 35.239 191.984 40.4649 197.523C45.6971 203.07 53.2767 206.385 62.6541 206.385Z" stroke="#33E7D2" stroke-width="1.71372"/>
</svg>
