<svg width="49" height="43" viewBox="0 0 49 43" fill="none" xmlns="http://www.w3.org/2000/svg">
<path opacity="0.5" d="M47.8623 3.80541H37.6532V1.06997C37.6532 0.484522 37.1841 0.0202026 36.6153 0.0202026C36.0365 0.0202026 35.5774 0.494615 35.5774 1.06997V3.80541H13.3228V1.06997C13.3228 0.484522 12.8538 0.0202026 12.2849 0.0202026C11.7161 0.0202026 11.247 0.494615 11.247 1.06997V3.80541H1.03788C0.459063 3.80541 0 4.27983 0 4.85518V13.2028V41.9301C0 42.5155 0.469043 42.9798 1.03788 42.9798H36.3259C36.7849 42.9697 37.0344 42.6972 37.0644 42.6669L48.5908 31.0085C48.9202 30.6855 48.9002 30.2615 48.9002 30.2615V13.2028V4.85518C48.9002 4.26973 48.4312 3.80541 47.8623 3.80541ZM2.08574 5.90494H11.247V8.58992C11.247 9.17537 11.7161 9.63969 12.2849 9.63969C12.8538 9.63969 13.3228 9.16527 13.3228 8.58992V5.90494H35.5674V8.58992C35.5674 9.17537 36.0365 9.63969 36.6053 9.63969C37.1841 9.63969 37.6432 9.16527 37.6432 8.58992V5.90494H46.8045V12.1531H2.08574V5.90494ZM2.08574 14.2526H46.8244V29.2117H36.3259C35.747 29.2117 35.288 29.6862 35.288 30.2615V40.8803H2.08574V14.2526ZM45.3475 31.3214L37.3637 39.3965V31.3214H45.3475Z" fill="#8A8D9B"/>
<path d="M12.56 26.374C12.56 29.062 14.604 30.14 17.208 30.14C19.812 30.14 21.548 28.992 21.548 26.276C21.548 24.008 20.148 22.79 18.412 22.79C17.026 22.79 15.99 23.49 15.458 25.03L14.996 24.764L15.416 23.504V22.09H20.764V20.13H13.176V24.344L15.696 25.8C16.256 25.086 16.914 24.75 17.74 24.75C18.79 24.75 19.308 25.282 19.308 26.332C19.308 27.564 18.79 28.18 17.208 28.18C15.458 28.18 14.8 27.564 14.8 26.374H12.56Z" fill="#33E7D2"/>
</svg>
