<svg width="300" height="571" viewBox="0 0 300 571" fill="none" xmlns="http://www.w3.org/2000/svg">
<path d="M234.876 483.737C128.212 449.693 61.731 365.166 46.3417 280.996C37.5522 232.922 43.0994 192.609 57.2076 160.97C71.317 129.329 93.9595 106.432 119.233 93.1825C169.759 66.6938 230.799 78.7769 255.069 136.432C277.446 189.59 292.376 216.589 305.066 230.574C311.391 237.545 317.141 241.259 322.962 243.372C328.803 245.492 334.76 246.02 341.595 246.546C356.548 247.698 395.808 257.41 429.593 278.79C463.357 300.156 491.953 333.381 484.856 381.678C477.761 429.966 441.764 464.015 394.428 481.69C347.096 499.363 288.236 500.768 234.876 483.737Z" stroke="#33E7D2" stroke-width="2"/>
<path d="M552.76 313.904C592.13 212.301 496.61 246.623 422.488 166.074C259.653 -10.878 313.995 208.611 200.44 145.999C118.473 100.803 84.9744 207.918 89.2972 248.982C89.3403 249.391 89.3594 249.713 89.3619 250.126C89.4158 258.748 92.3536 365.942 204.32 419.254C321.027 474.823 513.389 415.507 552.76 313.904Z" fill="white"/>
</svg>
