<svg width="59" height="40" viewBox="0 0 59 40" fill="none" xmlns="http://www.w3.org/2000/svg">
<path opacity="0.5" d="M57.7708 32.2698H54.0833V5.47492C54.0833 2.78809 51.8783 0.603088 49.1666 0.603088H9.83329C7.12172 0.603088 4.91659 2.78797 4.91659 5.47492V32.2698H1.22909C0.549783 32.2698 0 32.8145 0 33.4877V34.7057C0 37.3925 2.20501 39.5775 4.91671 39.5775H54.0834C56.795 39.5775 59 37.3925 59 34.7057V33.4877C59 32.8145 58.4502 32.2698 57.7708 32.2698ZM7.375 5.47492C7.375 4.13213 8.47814 3.03906 9.83329 3.03906H49.1666C50.5217 3.03906 51.6249 4.13213 51.6249 5.47492V32.2698H35.6458H23.3542H7.375V5.47492ZM54.0833 37.1415H4.91671C3.56155 37.1415 2.45841 36.0485 2.45841 34.7057H6.14591H22.8452L23.7143 35.5669C23.9448 35.7952 24.2568 35.9237 24.5834 35.9237H34.4167C34.7432 35.9237 35.0553 35.7952 35.2858 35.5669L36.1548 34.7057H52.8542H56.5417C56.5417 36.0485 55.4386 37.1415 54.0833 37.1415Z" fill="#8A8D9B"/>
<path d="M33.3655 17.0767C33.6333 17.2305 33.6333 17.6168 33.3655 17.7705L27.1939 21.3136C26.9272 21.4666 26.5947 21.2741 26.5947 20.9667L26.5947 13.8806C26.5947 13.5731 26.9272 13.3806 27.1939 13.5337L33.3655 17.0767Z" fill="#33E7D2"/>
</svg>
