<svg width="350" height="466" viewBox="0 0 350 466" fill="none" xmlns="http://www.w3.org/2000/svg">
<path d="M85.4421 153.171C86.5653 151.661 87.6996 150.168 88.8447 148.693L89.6422 149.405C90.4036 148.424 91.1698 147.451 91.9407 146.485L91.15 145.765C93.4969 142.826 95.887 139.958 98.3178 137.16L99.0872 137.906C99.9015 136.968 100.72 136.039 101.544 135.118L100.782 134.364C103.277 131.572 105.813 128.853 108.387 126.206L109.127 126.985C109.991 126.096 110.859 125.216 111.732 124.344L111.001 123.557C113.645 120.916 116.327 118.348 119.045 115.856L119.752 116.666C120.66 115.833 121.573 115.008 122.489 114.192L121.79 113.374C124.578 110.891 127.402 108.484 130.259 106.153L130.932 106.992C131.888 106.212 132.847 105.441 133.811 104.678L133.147 103.832C136.069 101.518 139.024 99.2832 142.009 97.1264L142.645 97.9938C143.648 97.2695 144.653 96.5541 145.662 95.8475L145.035 94.9734C148.089 92.8347 151.173 90.7766 154.283 88.7989L154.881 89.6924C155.924 89.029 156.971 88.3747 158.02 87.7295L157.432 86.8298C160.613 84.8728 163.821 82.9988 167.052 81.2073L167.609 82.125C168.69 81.5256 169.773 80.9354 170.859 80.3545L170.313 79.4312C173.616 77.6642 176.941 75.9826 180.285 74.3859L180.8 75.3257C181.918 74.7919 183.038 74.2676 184.16 73.7529L183.657 72.8079C187.074 71.2403 190.509 69.7605 193.958 68.3682L194.427 69.3279C195.581 68.8618 196.738 68.4054 197.896 67.9589L197.439 66.9946C200.961 65.6363 204.496 64.3685 208.041 63.1907L208.462 64.168C209.651 63.773 210.841 63.3882 212.032 63.0135L211.623 62.0321C215.244 60.8929 218.873 59.847 222.506 58.894L222.876 59.8865C224.096 59.5664 225.316 59.2569 226.537 58.9579L226.18 57.9622C229.892 57.0529 233.606 56.2404 237.318 55.524L237.634 56.5287C238.882 56.288 240.129 56.0581 241.376 55.8391L241.074 54.8318C244.869 54.1654 248.66 53.5993 252.442 53.133L252.7 54.1469C253.971 53.9902 255.242 53.8448 256.511 53.7106L256.268 52.6951C260.136 52.2863 263.993 51.982 267.834 51.7816L268.03 52.8009C269.32 52.7336 270.608 52.678 271.895 52.6342L271.715 51.6142C275.645 51.4804 279.556 51.4557 283.442 51.5395L283.571 52.5598C284.874 52.5879 286.175 52.6283 287.473 52.6809L287.361 51.6612C291.338 51.8224 295.287 52.098 299.202 52.4872L299.258 53.5031C300.573 53.6338 301.883 53.7774 303.189 53.9338L303.153 52.92C305.14 53.158 307.118 53.4255 309.086 53.7225C311.078 54.0234 313.048 54.3454 314.994 54.6882L314.978 55.694C316.27 55.9216 317.552 56.1583 318.824 56.404L318.857 55.4012C322.81 56.1648 326.665 57.0152 330.423 57.9477L330.338 58.9391C331.624 59.2581 332.899 59.5869 334.162 59.925L334.265 58.9384C338.207 59.9937 342.039 61.1408 345.762 62.3745L345.6 63.3435C346.866 63.7631 348.119 64.1927 349.36 64.6321L349.543 63.6701C353.445 65.052 357.223 66.5305 360.879 68.0991L360.63 69.0352C361.86 69.5633 363.077 70.1016 364.279 70.6499L364.551 69.7239C368.371 71.4658 372.051 73.308 375.593 75.2422L375.248 76.1315C376.462 76.7947 377.659 77.4687 378.841 78.1532L379.211 77.2782C382.886 79.408 386.404 81.6393 389.766 83.9619L389.317 84.7868C390.472 85.5846 391.608 86.3931 392.726 87.2121L393.202 86.4065C396.666 88.9444 399.954 91.5817 403.068 94.3062L402.509 95.0458C403.557 95.9627 404.585 96.8894 405.593 97.8255L406.179 97.1105C409.356 100.06 412.337 103.103 415.127 106.224L414.459 106.856C415.409 107.919 416.336 108.99 417.24 110.07L417.934 109.469C420.718 112.793 423.291 116.197 425.658 119.665L424.889 120.168C425.683 121.331 426.453 122.502 427.2 123.68L427.993 123.212C430.309 126.863 432.402 130.577 434.275 134.333L433.42 134.689C434.046 135.946 434.648 137.208 435.225 138.474L436.099 138.157C437.868 142.038 439.407 145.959 440.72 149.897L439.799 150.095C440.239 151.414 440.653 152.735 441.041 154.056L441.974 153.899C443.157 157.925 444.105 161.963 444.823 165.99L443.861 166.025C444.1 167.362 444.312 168.698 444.5 170.032L445.468 170.038C446.039 174.105 446.376 178.154 446.482 182.162L445.503 182.035C445.539 183.362 445.548 184.684 445.533 186.001L446.512 186.169C446.464 190.173 446.185 194.129 445.678 198.013L444.707 197.727C444.54 199.012 444.347 200.288 444.129 201.556L445.094 201.88C444.434 205.723 443.547 209.487 442.437 213.149L441.498 212.712C441.132 213.92 440.741 215.117 440.326 216.301L441.252 216.775C439.995 220.361 438.517 223.837 436.822 227.18L435.94 226.601C435.382 227.701 434.8 228.787 434.195 229.858L435.058 230.47C433.231 233.701 431.191 236.793 428.943 239.722L428.143 239.014C427.404 239.977 426.642 240.922 425.858 241.849L426.634 242.587C424.279 245.369 421.723 247.987 418.968 250.417L418.273 249.598C417.374 250.391 416.454 251.164 415.513 251.916L416.18 252.76C413.358 255.015 410.348 257.085 407.155 258.948L406.583 258.039C405.549 258.642 404.496 259.223 403.424 259.782L403.963 260.709C400.766 262.374 397.4 263.841 393.867 265.092L393.431 264.12C392.283 264.526 391.117 264.91 389.933 265.269L390.333 266.253C386.853 267.311 383.221 268.165 379.443 268.799L379.147 267.791C377.944 267.993 376.726 268.173 375.493 268.329L375.755 269.343C373.888 269.58 371.987 269.765 370.053 269.897C368.144 270.026 366.27 270.158 364.428 270.291L364.214 269.273C362.985 269.361 361.77 269.451 360.571 269.542L360.787 270.56C356.923 270.851 353.21 271.151 349.641 271.46L349.414 270.443C348.167 270.551 346.937 270.66 345.724 270.77L345.954 271.787C342.103 272.137 338.428 272.498 334.918 272.871L334.675 271.856C333.423 271.988 332.192 272.123 330.982 272.259L331.23 273.274C327.364 273.708 323.71 274.157 320.255 274.622L319.987 273.61C318.754 273.776 317.547 273.944 316.364 274.114L316.639 275.125C312.756 275.683 309.139 276.263 305.767 276.866L305.462 275.859C304.223 276.081 303.017 276.306 301.842 276.534L302.159 277.538C298.281 278.29 294.753 279.077 291.538 279.899L291.173 278.906C289.957 279.216 288.785 279.533 287.654 279.854L288.041 280.842C284.185 281.939 280.828 283.095 277.886 284.315L277.41 283.358C276.261 283.834 275.174 284.32 274.144 284.817L274.66 285.755C271.055 287.492 268.169 289.348 265.787 291.331L265.109 290.496C264.162 291.285 263.292 292.094 262.486 292.924L263.225 293.702C260.675 296.33 258.775 299.184 257.114 302.306L256.24 301.713C255.674 302.776 255.137 303.868 254.612 304.988L255.506 305.543C254.753 307.151 254.025 308.822 253.272 310.567C252.648 312.013 251.828 313.702 250.826 315.59L249.952 314.997C249.413 316.013 248.819 317.089 248.172 318.219L249.033 318.835C247.419 321.656 245.478 324.805 243.234 328.182L242.402 327.519C241.743 328.51 241.058 329.521 240.347 330.55L241.171 331.225C239.212 334.06 237.058 337.025 234.723 340.065L233.923 339.357C233.194 340.304 232.448 341.26 231.685 342.221L232.477 342.939C230.291 345.691 227.964 348.489 225.503 351.296L224.736 350.548C223.948 351.447 223.147 352.346 222.332 353.245L223.09 354.003C220.701 356.639 218.196 359.271 215.584 361.868L214.854 361.08C214.01 361.92 213.153 362.757 212.286 363.588L213.006 364.386C210.422 366.863 207.74 369.298 204.966 371.661L204.281 370.832C203.37 371.608 202.45 372.376 201.521 373.135L202.193 373.975C199.406 376.251 196.531 378.45 193.575 380.543L192.945 379.671C191.967 380.364 190.981 381.044 189.986 381.713L190.6 382.595C187.593 384.615 184.506 386.52 181.347 388.284L180.788 387.367C179.739 387.953 178.681 388.523 177.615 389.077L178.154 390.005C174.912 391.688 171.599 393.217 168.219 394.564L167.753 393.603C166.626 394.052 165.492 394.48 164.352 394.887L164.789 395.858C161.312 397.098 157.768 398.14 154.164 398.952L153.822 397.953C152.622 398.224 151.414 398.469 150.201 398.687L150.506 399.694C146.816 400.358 143.067 400.777 139.265 400.92L139.083 399.9C137.828 399.947 136.567 399.963 135.302 399.948L135.439 400.968C131.62 400.923 127.751 400.592 123.842 399.945L123.848 398.938C122.573 398.727 121.294 398.482 120.01 398.202L119.953 399.2C116.147 398.369 112.306 397.234 108.437 395.766L108.642 394.812C107.403 394.342 106.161 393.838 104.916 393.297L104.663 394.232C102.807 393.426 100.945 392.543 99.078 391.58C97.2154 390.618 95.3999 389.609 93.6309 388.553L94.0143 387.686C92.8287 386.978 91.6646 386.25 90.5219 385.502L90.0967 386.343C86.5365 384.011 83.1795 381.484 80.0231 378.777L80.5729 378.03C79.5087 377.117 78.4678 376.184 77.45 375.231L76.8599 375.942C73.7388 373.019 70.832 369.912 68.1361 366.636L68.8371 366.043C67.9446 364.958 67.0755 363.855 66.2296 362.734L65.4957 363.286C62.9364 359.894 60.5883 356.341 58.4476 352.645L59.2659 352.221C58.5648 351.01 57.8862 349.784 57.2297 348.543L56.3882 348.925C54.4307 345.223 52.67 341.391 51.1025 337.444L51.9998 337.182C51.4899 335.899 51.0006 334.603 50.5318 333.295L49.6201 333.518C48.2304 329.641 47.0191 325.663 45.9829 321.599L46.9272 321.482C46.5916 320.166 46.2745 318.84 45.9757 317.506L45.0235 317.589C44.1387 313.637 43.414 309.61 42.8464 305.52L43.8152 305.528C43.6314 304.203 43.4641 302.872 43.3134 301.534L42.3411 301.499C41.8948 297.538 41.5922 293.524 41.4306 289.468L42.4089 289.581C42.3564 288.262 42.3188 286.939 42.2963 285.612L41.3174 285.474C41.2506 281.548 41.3135 277.586 41.5039 273.597L42.4818 273.801C42.5441 272.497 42.6201 271.189 42.7098 269.88L41.7331 269.655C41.9977 265.789 42.3805 261.901 42.8796 258.001L43.8506 258.284C44.0142 257.006 44.1903 255.727 44.3789 254.446L43.4104 254.145C43.9694 250.35 44.6374 246.546 45.4128 242.741L46.3722 243.094C46.6257 241.85 46.8908 240.606 47.1673 239.362L46.2114 238.993C47.0363 235.282 47.9628 231.573 48.9894 227.874L49.9337 228.29C50.2697 227.079 50.6165 225.869 50.974 224.66L50.034 224.229C51.1015 220.62 52.2642 217.021 53.5204 213.441L54.4466 213.915C54.861 212.734 55.2857 211.555 55.7205 210.378L54.7993 209.891C56.0928 206.39 57.4761 202.91 58.9476 199.455L59.8531 199.982C60.3379 198.845 60.8322 197.71 61.3362 196.578L60.4363 196.038C61.9448 192.65 63.5389 189.29 65.2171 185.965L66.0992 186.542C66.6526 185.446 67.2152 184.353 67.7869 183.264L66.911 182.675C68.6231 179.414 70.4168 176.189 72.2909 173.006L73.147 173.631C73.7668 172.578 74.3954 171.53 75.0328 170.487L74.1837 169.85C76.0935 166.724 78.0819 163.642 80.1477 160.608L80.9748 161.279C81.657 160.277 82.3477 159.28 83.0468 158.289L82.2274 157.608C83.28 156.116 84.3516 154.637 85.4421 153.171Z" stroke="#28BAA8" stroke-width="2" stroke-dasharray="12 4"/>
<path d="M396.181 94.7274C474.922 150.152 387.858 171.721 372.821 267.277C339.786 477.2 272.192 289.161 219.367 390.851C181.261 464.207 104.21 401.977 87.2013 369.643C87.0098 369.279 86.8462 368.999 86.6203 368.654C82.1946 361.901 32.2567 281.814 88.3166 188.001C146.911 89.9448 317.439 39.3024 396.181 94.7274Z" fill="#3D3D56"/>
</svg>
